<?xml version="1.0" encoding="UTF-8"?><svg id="a" xmlns="http://www.w3.org/2000/svg" viewBox="0 0 38.66 51.46"><path d="M19.19,11.9S10.51-5.41,4.32,1.73C.18,6.5,19.19,11.9,19.19,11.9Z" fill="#73ccd0" stroke-width="0"/><path d="M19.55,11.9S25.54-.06,29.82,4.87c2.86,3.3-10.27,7.03-10.27,7.03Z" fill="#73ccd0" stroke-width="0"/><path d="M18.34,30.14v-7.92c-2.4.26-4.48,1.26-6.25,3.03-1.68,1.69-2.66,3.68-2.96,5.95h6.87l2.35-1.06Z" fill="#73ccd0" stroke-width="0"/><path d="M18.34,16.72v-3.86H0v18.34h3.66c.31-3.79,1.85-7.07,4.62-9.85s6.18-4.36,10.06-4.63Z" fill="#73ccd0" stroke-width="0"/><path d="M27.68,25.92c-1.95-2.33-4.41-3.57-7.36-3.74v7.07l7.36-3.33Z" fill="#73ccd0" stroke-width="0"/><path d="M34.12,26.01c.31.66.34,1.35.09,2.05-.25.68-.72,1.18-1.41,1.49-1.08.49-2.3,1.04-3.65,1.64h9.5c0-10.13-8.21-18.34-18.34-18.34v3.83c2.9.12,5.57.98,8.01,2.58,2.6,1.7,4.53,3.95,5.8,6.74Z" fill="#73ccd0" stroke-width="0"/><path d="M9.13,34.3l2.61-1.18h-2.71c.01.4.04.79.1,1.18Z" fill="#73ccd0" stroke-width="0"/><path d="M11.27,39.28c1.85,2.36,4.2,3.69,7.07,3.98v-7.18c-3.47,1.57-5.83,2.64-7.07,3.2Z" fill="#73ccd0" stroke-width="0"/><path d="M3.62,33.12H0c0,10.13,8.21,18.34,18.34,18.34v-2.87c-3.88-.27-7.24-1.81-10.06-4.63-3.01-3.01-4.56-6.63-4.67-10.85Z" fill="#73ccd0" stroke-width="0"/><path d="M22.02,34.41c-.6.27-1.16.52-1.71.77v8.11c2-.13,3.83-.79,5.49-1.99,1.8-1.31,3.06-3.01,3.78-5.1.43-1.21,1.29-1.82,2.58-1.82.92,0,1.65.38,2.2,1.14.53.74.63,1.55.32,2.43-1.09,3.16-3.01,5.72-5.74,7.68-2.6,1.87-5.47,2.86-8.62,2.99v2.84h18.34v-18.34h-13.77c-.91.41-1.87.84-2.87,1.29Z" fill="#73ccd0" stroke-width="0"/></svg>