<?xml version="1.0" encoding="UTF-8"?><svg id="a" xmlns="http://www.w3.org/2000/svg" viewBox="0 0 243.28 63.5"><path d="M19.19,11.9S10.51-5.41,4.32,1.73C.18,6.5,19.19,11.9,19.19,11.9Z" fill="#d9545a" stroke-width="0"/><path d="M19.55,11.9S25.54-.06,29.82,4.87c2.86,3.3-10.27,7.03-10.27,7.03Z" fill="#d9545a" stroke-width="0"/><path d="M61.2,29.49c0,.74-.26,1.37-.79,1.88-.53.53-1.16.79-1.9.79h-11.98c-.74,0-1.37-.26-1.88-.79-.53-.51-.79-1.13-.79-1.88v-.06c0-.74.26-1.38.79-1.9.51-.53,1.13-.79,1.88-.79h11.98c.74,0,1.38.26,1.9.79s.79,1.16.79,1.9v.06Z" fill="#d9545a" stroke-width="0"/><path d="M71.6,41.65c0,1.21.43,2.25,1.29,3.11.86.86,1.89,1.29,3.11,1.29h8.53c.74,0,1.38.26,1.9.79s.79,1.16.79,1.9v.06c0,.74-.26,1.37-.79,1.88-.53.53-1.16.79-1.9.79h-8.53c-2.71,0-5.03-.96-6.94-2.87-1.91-1.91-2.87-4.23-2.87-6.94V10.12c0-.74.26-1.38.79-1.9.53-.51,1.15-.76,1.88-.76h.09c.72,0,1.35.25,1.88.76.53.53.79,1.16.79,1.9v31.52Z" fill="#d9545a" stroke-width="0"/><path d="M105.55,19.47c4.41,0,8.18,1.56,11.31,4.69,3.12,3.12,4.69,6.9,4.69,11.31s-1.56,8.18-4.69,11.31c-3.12,3.12-6.89,4.69-11.31,4.69s-8.18-1.56-11.31-4.69c-3.12-3.12-4.69-6.89-4.69-11.31s1.56-8.18,4.69-11.31c3.12-3.12,6.89-4.69,11.31-4.69ZM105.55,24.95c-2.93,0-5.43,1.04-7.5,3.11-2.05,2.07-3.08,4.57-3.08,7.5s1.03,5.4,3.08,7.47c2.07,2.07,4.57,3.11,7.5,3.11s5.42-1.04,7.47-3.11c2.07-2.07,3.11-4.56,3.11-7.47s-1.04-5.43-3.11-7.5c-2.05-2.07-4.54-3.11-7.47-3.11Z" fill="#d9545a" stroke-width="0"/><path d="M129.28,7.46c.72,0,1.35.25,1.88.76.53.53.79,1.16.79,1.9v9.35h5.27c.72,0,1.35.26,1.88.79s.79,1.16.79,1.9v.06c0,.74-.26,1.37-.79,1.88-.53.53-1.15.79-1.88.79h-5.27v18.25c0,.8.28,1.48.85,2.05.57.57,1.26.85,2.08.85h2.34c.72,0,1.35.26,1.88.79s.79,1.16.79,1.9v.06c0,.74-.26,1.37-.79,1.88-.53.53-1.15.79-1.88.79h-2.34c-2.3,0-4.28-.81-5.92-2.43-1.62-1.64-2.43-3.6-2.43-5.89V10.12c0-.74.26-1.38.79-1.9.53-.51,1.15-.76,1.88-.76h.09Z" fill="#d9545a" stroke-width="0"/><path d="M146.74,7.46c.72,0,1.35.25,1.88.76.53.53.79,1.16.79,1.9v9.35h5.27c.72,0,1.35.26,1.88.79s.79,1.16.79,1.9v.06c0,.74-.26,1.37-.79,1.88-.53.53-1.15.79-1.88.79h-5.27v18.25c0,.8.28,1.48.85,2.05.57.57,1.26.85,2.08.85h2.34c.72,0,1.35.26,1.88.79s.79,1.16.79,1.9v.06c0,.74-.26,1.37-.79,1.88-.53.53-1.15.79-1.88.79h-2.34c-2.3,0-4.28-.81-5.92-2.43-1.62-1.64-2.43-3.6-2.43-5.89V10.12c0-.74.26-1.38.79-1.9.53-.51,1.15-.76,1.88-.76h.09Z" fill="#d9545a" stroke-width="0"/><path d="M191.1,28.82c.31.66.34,1.35.09,2.05-.25.68-.72,1.18-1.41,1.49-2.73,1.23-6.33,2.85-10.78,4.86-5.53,2.5-9.11,4.12-10.75,4.86,2.11,2.7,4.88,4.04,8.32,4.04,2.29,0,4.36-.67,6.21-2.02,1.8-1.31,3.06-3.01,3.78-5.1.43-1.21,1.29-1.82,2.58-1.82.92,0,1.65.38,2.2,1.14.53.74.63,1.55.32,2.43-1.09,3.16-3.01,5.72-5.74,7.68-2.79,2.01-5.91,3.02-9.35,3.02-4.41,0-8.18-1.56-11.31-4.69-3.12-3.12-4.69-6.89-4.69-11.31s1.56-8.18,4.69-11.31c3.12-3.12,6.89-4.69,11.31-4.69,3.18,0,6.09.87,8.73,2.61,2.6,1.7,4.53,3.95,5.8,6.74ZM176.57,24.95c-2.93,0-5.43,1.04-7.5,3.11-2.05,2.07-3.08,4.57-3.08,7.5,0,.53.04,1.04.12,1.55l18.54-8.38c-2.11-2.52-4.8-3.78-8.09-3.78Z" fill="#d9545a" stroke-width="0"/><path d="M210.82,19.47c.74,0,1.38.26,1.9.79.51.53.76,1.16.76,1.9v.06c0,.74-.25,1.37-.76,1.88s-1.16.79-1.9.79h-1.67c-1.84,0-3.4.64-4.69,1.93-1.27,1.29-1.91,2.85-1.93,4.69v17.29c0,.74-.26,1.37-.79,1.88-.53.53-1.15.79-1.88.79h-.09c-.72,0-1.35-.26-1.88-.79-.53-.51-.79-1.13-.79-1.88v-17.29c.04-3.34,1.21-6.18,3.52-8.53,2.34-2.34,5.19-3.52,8.52-3.52h1.67Z" fill="#d9545a" stroke-width="0"/><path d="M222.13,37.55c0,2.17.76,4.02,2.29,5.57,1.54,1.54,3.41,2.31,5.6,2.31s4.01-.77,5.54-2.31c1.54-1.52,2.31-3.38,2.31-5.57v-15.38c0-.74.26-1.38.79-1.9s1.16-.79,1.9-.79h.06c.74,0,1.37.26,1.88.79.53.53.79,1.16.79,1.9v28.04c0,3.61-1.37,6.75-4.1,9.4-2.66,2.6-5.71,3.9-9.17,3.9-2.77,0-5.29-.68-7.56-2.05-2.19-1.31-3.85-3.08-4.98-5.3-.37-.72-.4-1.46-.09-2.2.29-.76.82-1.27,1.58-1.52l.12-.06c.62-.22,1.24-.21,1.85.03.61.25,1.06.67,1.38,1.26.7,1.33,1.75,2.39,3.13,3.19,1.41.82,2.93,1.23,4.57,1.23,2.09,0,3.92-.77,5.48-2.31,1.58-1.56,2.37-3.42,2.37-5.57v-1.96c-2.32,1.72-4.94,2.58-7.85,2.58-3.67,0-6.81-1.3-9.4-3.9-2.6-2.58-3.9-5.7-3.9-9.38v-15.38c0-.74.26-1.38.79-1.9s1.15-.79,1.88-.79h.09c.72,0,1.35.26,1.88.79s.79,1.16.79,1.9v15.38Z" fill="#d9545a" stroke-width="0"/><path d="M18.34,30.14v-7.92c-2.4.26-4.48,1.26-6.25,3.03-1.68,1.69-2.66,3.68-2.96,5.95h6.87l2.35-1.06Z" fill="#d9545a" stroke-width="0"/><path d="M18.34,16.72v-3.86H0v18.34h3.66c.31-3.79,1.85-7.07,4.62-9.85s6.18-4.36,10.06-4.63Z" fill="#d9545a" stroke-width="0"/><path d="M27.68,25.92c-1.95-2.33-4.41-3.57-7.36-3.74v7.07l7.36-3.33Z" fill="#d9545a" stroke-width="0"/><path d="M34.12,26.01c.31.66.34,1.35.09,2.05-.25.68-.72,1.18-1.41,1.49-1.08.49-2.3,1.04-3.65,1.64h9.5c0-10.13-8.21-18.34-18.34-18.34v3.83c2.9.12,5.57.98,8.01,2.58,2.6,1.7,4.53,3.95,5.8,6.74Z" fill="#d9545a" stroke-width="0"/><path d="M9.13,34.3l2.61-1.18h-2.71c.01.4.04.79.1,1.18Z" fill="#d9545a" stroke-width="0"/><path d="M11.27,39.28c1.85,2.36,4.2,3.69,7.07,3.98v-7.18c-3.47,1.57-5.83,2.64-7.07,3.2Z" fill="#d9545a" stroke-width="0"/><path d="M3.62,33.12H0c0,10.13,8.21,18.34,18.34,18.34v-2.87c-3.88-.27-7.24-1.81-10.06-4.63-3.01-3.01-4.56-6.63-4.67-10.85Z" fill="#d9545a" stroke-width="0"/><path d="M22.02,34.41c-.6.27-1.16.52-1.71.77v8.11c2-.13,3.83-.79,5.49-1.99,1.8-1.31,3.06-3.01,3.78-5.1.43-1.21,1.29-1.82,2.58-1.82.92,0,1.65.38,2.2,1.14.53.74.63,1.55.32,2.43-1.09,3.16-3.01,5.72-5.74,7.68-2.6,1.87-5.47,2.86-8.62,2.99v2.84h18.34v-18.34h-13.77c-.91.41-1.87.84-2.87,1.29Z" fill="#d9545a" stroke-width="0"/></svg>